<svg width="153" height="44" viewBox="0 0 153 44" fill="none" xmlns="http://www.w3.org/2000/svg">
<path fill-rule="evenodd" clip-rule="evenodd" d="M7.3408 36.3848L4.67548 38.0078C2.62065 39.2437 0 37.7696 0 35.3723V3.09062C0 0.67843 2.62065 -0.79569 4.67548 0.45508L13.5797 5.86018C13.1777 5.78568 12.7608 5.74108 12.329 5.74108C8.10019 5.74108 4.66059 9.07638 4.45213 13.2457H7.81728C8.30866 13.2457 8.80003 13.6477 8.82981 14.154C8.85959 14.7049 8.41289 15.1665 7.86195 15.1665H4.45213V17.0426H7.86195C8.41289 17.0426 8.85959 17.4893 8.82981 18.0552C8.80003 18.5763 8.33844 18.9635 7.81728 18.9635H4.45213V20.8247H7.81728C8.30866 20.8247 8.80003 21.2416 8.82981 21.7479C8.85959 22.2988 8.41289 22.7604 7.86195 22.7604H4.45213C4.66059 26.9296 8.10019 30.2501 12.329 30.2501C12.463 30.2501 12.597 30.2352 12.7459 30.2352L11.1527 31.9476V34.0769L11.0186 34.1513H9.67854C8.42778 34.1513 7.40036 35.149 7.3408 36.3848ZM31.284 21.867L13.5053 32.6474V30.1608C17.1682 29.6099 20.0122 26.5276 20.1909 22.7604H16.7811C16.2302 22.7604 15.7984 22.2988 15.8133 21.7479C15.843 21.2416 16.3344 20.8247 16.8407 20.8247H20.2058V18.9635H16.7811C16.2302 18.9635 15.7984 18.5019 15.8133 17.9509C15.843 17.4298 16.3195 17.0426 16.8407 17.0426H20.2058V15.1665H16.8407C16.3344 15.1665 15.843 14.7645 15.8133 14.2582C15.7984 13.7073 16.2302 13.2457 16.7811 13.2457H20.1909C20.1165 11.6226 19.5507 10.1336 18.6424 8.91268L31.284 16.5959C33.2644 17.7871 33.2644 20.6609 31.284 21.867Z" fill="url(#paint0_linear_90_55)"/>
<path style="mix-blend-mode:multiply" fill-rule="evenodd" clip-rule="evenodd" d="M12.7459 30.2352L11.1527 31.9476V34.0769L11.0186 34.1513H9.67854C8.42778 34.1513 7.40036 35.149 7.3408 36.3848L4.67548 38.0078C2.62065 39.2437 0 37.7696 0 35.3723V3.09062C0 0.67843 2.62065 -0.79569 4.67548 0.45508L13.5797 5.86018C13.1777 5.78568 12.7608 5.74108 12.329 5.74108C8.10019 5.74108 4.66059 9.07638 4.45213 13.2457H7.81728C8.30866 13.2457 8.80003 13.6477 8.82981 14.154C8.85959 14.7049 8.41289 15.1665 7.86195 15.1665H4.45213V17.0426H7.86195C8.41289 17.0426 8.85959 17.4893 8.82981 18.0552C8.80003 18.5763 8.33844 18.9635 7.81728 18.9635H4.45213V20.8247H7.81728C8.30866 20.8247 8.80003 21.2416 8.82981 21.7479C8.85959 22.2988 8.41289 22.7604 7.86195 22.7604H4.45213C4.66059 26.9296 8.10019 30.2501 12.329 30.2501C12.463 30.2501 12.597 30.2352 12.7459 30.2352ZM23.02 26.8701L13.5053 32.6474V30.1608C17.1682 29.6099 20.0122 26.5276 20.1909 22.7604H16.7811C16.2302 22.7604 15.7984 22.2988 15.8133 21.7479C15.843 21.2416 16.3344 20.8247 16.8407 20.8247H20.2058V18.9635H16.7811C16.2302 18.9635 15.7984 18.5019 15.8133 17.9509C15.843 17.4298 16.3195 17.0426 16.8407 17.0426H20.2058V15.4941C20.9057 17.1618 21.5013 18.889 21.9777 20.6758C22.5436 22.82 22.886 24.8897 23.02 26.8701ZM16.7811 13.2457H19.1635C19.4812 13.871 19.779 14.5113 20.0569 15.1665H16.8407C16.3344 15.1665 15.843 14.7645 15.8133 14.2582C15.7984 13.7073 16.2302 13.2457 16.7811 13.2457Z" fill="url(#paint1_linear_90_55)"/>
<path style="mix-blend-mode:screen" fill-rule="evenodd" clip-rule="evenodd" d="M4.45213 16.3726V15.1665H7.86195C8.41289 15.1665 8.85959 14.7049 8.82981 14.154C8.80003 13.6477 8.30866 13.2457 7.81729 13.2457H4.45213C4.66059 9.07638 8.10019 5.74108 12.329 5.74108C12.7608 5.74108 13.1777 5.78568 13.5797 5.86018L4.67548 0.45508C2.62065 -0.79569 0 0.67843 0 3.09062V12.7096C1.31033 14.0348 2.79933 15.2558 4.45213 16.3726ZM8.82981 18.0552C8.85959 17.4893 8.41289 17.0426 7.86195 17.0426H5.47954C6.44243 17.6382 7.45 18.1941 8.50223 18.7103C8.6958 18.5465 8.81492 18.3083 8.82981 18.0552ZM31.284 16.5959L18.6424 8.91268C19.5507 10.1336 20.1165 11.6226 20.1909 13.2457H16.7811C16.2302 13.2457 15.7984 13.7073 15.8133 14.2582C15.843 14.7644 16.3344 15.1665 16.8407 15.1665H20.2058V17.0426H16.8407C16.3195 17.0426 15.843 17.4298 15.8133 17.9509C15.7984 18.5019 16.2302 18.9634 16.7811 18.9634H20.2058V20.8247H16.8407C16.4535 20.8247 16.0962 21.063 15.9175 21.3905C17.3767 21.7479 18.8806 22.0308 20.4143 22.2095C24.3304 22.686 28.038 22.5073 31.3883 21.7926C33.2495 20.5567 33.2197 17.7722 31.284 16.5959Z" fill="url(#paint2_linear_90_55)"/>
<path style="mix-blend-mode:screen" fill-rule="evenodd" clip-rule="evenodd" d="M31.284 21.867L13.5053 32.6474V30.1607C17.1682 29.6098 20.0122 26.5275 20.1909 22.7604H16.7811C16.2302 22.7604 15.7984 22.2988 15.8133 21.7478C15.843 21.2416 16.3344 20.8247 16.8407 20.8247H20.2058V18.9634H16.7811C16.2302 18.9634 15.7984 18.5018 15.8133 17.9509C15.843 17.4297 16.3195 17.0426 16.8407 17.0426H20.2058V15.1664H16.8407C16.3344 15.1664 15.843 14.7644 15.8133 14.2581C15.7984 13.7072 16.2302 13.2456 16.7811 13.2456H20.1909C20.1314 12.114 19.8336 11.0419 19.3571 10.0889C19.7045 10.0492 20.052 10.0145 20.3994 9.98468L31.284 16.5959C33.2644 17.7871 33.2644 20.6609 31.284 21.867ZM0 35.3722V23.2071C1.19121 20.9587 2.79933 18.8592 4.73504 17.0426H7.86195C8.41289 17.0426 8.85959 17.4893 8.82981 18.0551C8.80003 18.5763 8.33844 18.9634 7.81729 18.9634H4.45213V20.8247H7.81729C8.30866 20.8247 8.80003 21.2416 8.82981 21.7478C8.85959 22.2988 8.41289 22.7604 7.86195 22.7604H4.45213C4.66059 26.9296 8.10019 30.2501 12.329 30.2501C12.463 30.2501 12.597 30.2352 12.7459 30.2352L11.1527 31.9475V34.0768L11.0186 34.1513H9.67854C8.42778 34.1513 7.40036 35.1489 7.3408 36.3848L4.67548 38.0078C2.62065 39.2437 0 37.7695 0 35.3722ZM6.92388 15.1664C7.51948 14.7197 8.13494 14.2978 8.77025 13.9008C8.80003 13.9752 8.82981 14.0646 8.82981 14.1539C8.85959 14.7048 8.41289 15.1664 7.86195 15.1664H6.92388Z" fill="url(#paint3_linear_90_55)"/>
<path d="M47.1705 35V8.81818H56.017C58.071 8.81818 59.75 9.18892 61.054 9.9304C62.3665 10.6634 63.3381 11.6562 63.9688 12.9091C64.5994 14.1619 64.9148 15.5597 64.9148 17.1023C64.9148 18.6449 64.5994 20.0469 63.9688 21.3082C63.3466 22.5696 62.3835 23.5753 61.0795 24.3253C59.7756 25.0668 58.1051 25.4375 56.0682 25.4375H49.7273V22.625H55.9659C57.3722 22.625 58.5014 22.3821 59.3537 21.8963C60.206 21.4105 60.8239 20.7543 61.2074 19.9276C61.5994 19.0923 61.7955 18.1506 61.7955 17.1023C61.7955 16.054 61.5994 15.1165 61.2074 14.2898C60.8239 13.4631 60.2017 12.8153 59.3409 12.3466C58.4801 11.8693 57.3381 11.6307 55.9148 11.6307H50.3409V35H47.1705ZM77.3793 35.4091C75.6065 35.4091 74.0511 34.9872 72.7131 34.1435C71.3835 33.2997 70.3438 32.1193 69.5938 30.6023C68.8523 29.0852 68.4815 27.3125 68.4815 25.2841C68.4815 23.2386 68.8523 21.4531 69.5938 19.9276C70.3438 18.402 71.3835 17.2173 72.7131 16.3736C74.0511 15.5298 75.6065 15.108 77.3793 15.108C79.152 15.108 80.7031 15.5298 82.0327 16.3736C83.3707 17.2173 84.4105 18.402 85.152 19.9276C85.902 21.4531 86.277 23.2386 86.277 25.2841C86.277 27.3125 85.902 29.0852 85.152 30.6023C84.4105 32.1193 83.3707 33.2997 82.0327 34.1435C80.7031 34.9872 79.152 35.4091 77.3793 35.4091ZM77.3793 32.6989C78.7259 32.6989 79.8338 32.3537 80.7031 31.6634C81.5724 30.973 82.2159 30.0653 82.6335 28.9403C83.0511 27.8153 83.2599 26.5966 83.2599 25.2841C83.2599 23.9716 83.0511 22.7486 82.6335 21.6151C82.2159 20.4815 81.5724 19.5653 80.7031 18.8665C79.8338 18.1676 78.7259 17.8182 77.3793 17.8182C76.0327 17.8182 74.9247 18.1676 74.0554 18.8665C73.1861 19.5653 72.5426 20.4815 72.125 21.6151C71.7074 22.7486 71.4986 23.9716 71.4986 25.2841C71.4986 26.5966 71.7074 27.8153 72.125 28.9403C72.5426 30.0653 73.1861 30.973 74.0554 31.6634C74.9247 32.3537 76.0327 32.6989 77.3793 32.6989ZM98.2972 35.4091C96.6609 35.4091 95.2163 34.9957 93.9634 34.169C92.7106 33.3338 91.7305 32.1577 91.0231 30.6406C90.3157 29.1151 89.962 27.3125 89.962 25.233C89.962 23.1705 90.3157 21.3807 91.0231 19.8636C91.7305 18.3466 92.7148 17.1747 93.9762 16.348C95.2376 15.5213 96.695 15.108 98.3484 15.108C99.6268 15.108 100.637 15.321 101.378 15.7472C102.128 16.1648 102.699 16.642 103.091 17.179C103.492 17.7074 103.803 18.142 104.025 18.483H104.28V8.81818H107.297V35H104.382V31.983H104.025C103.803 32.3409 103.488 32.7926 103.078 33.3381C102.669 33.875 102.086 34.3565 101.327 34.7827C100.569 35.2003 99.5586 35.4091 98.2972 35.4091ZM98.7063 32.6989C99.9165 32.6989 100.939 32.3835 101.775 31.7528C102.61 31.1136 103.245 30.2315 103.679 29.1065C104.114 27.973 104.331 26.6648 104.331 25.1818C104.331 23.7159 104.118 22.4332 103.692 21.3338C103.266 20.2259 102.635 19.3651 101.8 18.7514C100.965 18.1293 99.9336 17.8182 98.7063 17.8182C97.4279 17.8182 96.3626 18.1463 95.5103 18.8026C94.6665 19.4503 94.0316 20.3324 93.6055 21.4489C93.1879 22.5568 92.979 23.8011 92.979 25.1818C92.979 26.5795 93.1921 27.8494 93.6183 28.9915C94.0529 30.125 94.6921 31.0284 95.5359 31.7017C96.3881 32.3665 97.445 32.6989 98.7063 32.6989ZM113.242 35V15.3636H116.259V35H113.242ZM114.776 12.0909C114.188 12.0909 113.681 11.8906 113.255 11.4901C112.837 11.0895 112.628 10.608 112.628 10.0455C112.628 9.48295 112.837 9.00142 113.255 8.60085C113.681 8.20028 114.188 8 114.776 8C115.364 8 115.867 8.20028 116.284 8.60085C116.711 9.00142 116.924 9.48295 116.924 10.0455C116.924 10.608 116.711 11.0895 116.284 11.4901C115.867 11.8906 115.364 12.0909 114.776 12.0909ZM130.529 15.3636V17.9205H119.944V15.3636H130.529ZM123.114 35V12.6534C123.114 11.5284 123.379 10.5909 123.907 9.84091C124.435 9.09091 125.121 8.52841 125.965 8.15341C126.809 7.77841 127.7 7.59091 128.637 7.59091C129.379 7.59091 129.984 7.65057 130.452 7.76989C130.921 7.8892 131.271 8 131.501 8.10227L130.631 10.7102C130.478 10.6591 130.265 10.5952 129.992 10.5185C129.728 10.4418 129.379 10.4034 128.944 10.4034C127.947 10.4034 127.227 10.6548 126.783 11.1577C126.349 11.6605 126.131 12.3977 126.131 13.3693V35H123.114ZM136.701 42.3636C136.189 42.3636 135.733 42.321 135.333 42.2358C134.932 42.1591 134.655 42.0824 134.502 42.0057L135.269 39.3466C136.002 39.5341 136.65 39.6023 137.212 39.5511C137.775 39.5 138.273 39.2486 138.708 38.7969C139.151 38.3537 139.556 37.6335 139.922 36.6364L140.485 35.1023L133.223 15.3636H136.496L141.917 31.0114H142.121L147.542 15.3636H150.814L142.479 37.8636C142.104 38.8778 141.64 39.7173 141.086 40.3821C140.532 41.0554 139.888 41.554 139.155 41.8778C138.431 42.2017 137.613 42.3636 136.701 42.3636Z" fill="white"/>
<defs>
<linearGradient id="paint0_linear_90_55" x1="23.5406" y1="-15.4042" x2="65.0595" y2="26.1147" gradientUnits="userSpaceOnUse">
<stop stop-color="#FD6D6D"/>
<stop offset="1" stop-color="#F97535"/>
</linearGradient>
<linearGradient id="paint1_linear_90_55" x1="-23.1895" y1="2.45585" x2="0.555088" y2="-20.056" gradientUnits="userSpaceOnUse">
<stop stop-color="white"/>
<stop offset="0.987" stop-color="#D937BE"/>
<stop offset="1" stop-color="#D837BF"/>
</linearGradient>
<linearGradient id="paint2_linear_90_55" x1="20.5912" y1="-10.9401" x2="32.4836" y2="26.298" gradientUnits="userSpaceOnUse">
<stop stop-color="#FD6D6D"/>
<stop offset="0.5" stop-color="#71381D"/>
<stop offset="1" stop-color="#F97535"/>
</linearGradient>
<linearGradient id="paint3_linear_90_55" x1="8.7631" y1="-14.5467" x2="35.9592" y2="18.8435" gradientUnits="userSpaceOnUse">
<stop stop-color="#FD6D6D"/>
<stop offset="1"/>
</linearGradient>
</defs>
</svg>
